# xmcd CD database file
#
# Track frame offsets:
#	150
#	17413
#	32486
#	44629
#	60848
#	77101
#	90330
#	105757
#	120597
#	135585
#	152987
#	164872
#	178348
#	193010
#
# Disc length: 2820 seconds
#
# Revision: 0
# Processed by: cddbd v1.5.2PL0 Copyright (c) Steve Scherf et al.
# Submitted via: CDex 1.51
#
DISCID=ac0b020e
DTITLE=get up and dance special nr.55 - get up and dance special nr.55
DYEAR=1900
DGENRE=Country
TTITLE0=Baila Maita
TTITLE1=Hey Boy
TTITLE2=Not Like That
TTITLE3=Dimelo
TTITLE4=Dimel x
TTITLE5=Body to Body
TTITLE6=Blue Bayou Dreams
TTITLE7=Nimby
TTITLE8=I Want Candy
TTITLE9=All Those Little Lies
TTITLE10=Chicken Truck
TTITLE11=Honky Tonk Baby
TTITLE12=I'm Not Breaking
TTITLE13=Is It So
EXTD=
EXTT0=
EXTT1=
EXTT2=
EXTT3=
EXTT4=
EXTT5=
EXTT6=
EXTT7=
EXTT8=
EXTT9=
EXTT10=
EXTT11=
EXTT12=
EXTT13=
PLAYORDER=
